<?xml version="1.0" encoding="utf-8"?>
<!-- Generator: Adobe Illustrator 21.0.0, SVG Export Plug-In . SVG Version: 6.00 Build 0)  -->
<svg version="1.1" id="Layer_1" xmlns="http://www.w3.org/2000/svg" xmlns:xlink="http://www.w3.org/1999/xlink" x="0px" y="0px"
	 width="1000px" height="432px" viewBox="0 0 1000 432" style="enable-background:new 0 0 1000 432;" xml:space="preserve">
<style type="text/css">
	.st0{opacity:0.5;}
	.st1{fill:#6c757d80;}
	.st2{fill:#364469;}
	.st3{fill:#CE7361;}
	.st4{fill:#FCD56B;}
	.st5{fill:#EA7DAA;}
	.st6{fill:#9DF9E1;}
	.st7{fill:#FFFFED;}
	.st8{fill:#f8f9fa;}
	.st9{fill:#302A81;}
	.st10{fill:#E27AFC;}
	.st11{fill:#242449;}
	.st12{fill:#FFBFA4;}
	.st13{fill:#464646;}
	.st14{fill:#EDE9DD;}
	.st15{fill:#FFFFEE;}
	.st16{fill:#88F2D4;}
	.st17{fill:#F17187;}
</style>
<!-- st4 -> yello -->
<!-- st5 -> pink cloth -->
<!-- st6 -> the color for teal-->

<g>
	<path class="st2" d="M1705.2,152.4l-8.4,19.6l2.2,0.9l8.4-19.6c0.1-0.2,0-0.5-0.2-0.6c-0.5-0.2-0.9-0.4-1.4-0.6
		C1705.5,152.1,1705.3,152.2,1705.2,152.4z"/>
	<path class="st2" d="M1705.2,157.2l-1.4-0.6l2.4-5.5c0.2-0.4,0.6-0.6,1-0.4l0,0c0.4,0.2,0.6,0.6,0.4,1L1705.2,157.2z"/>
</g>
<g>
	<polygon class="st3" points="314.7,158.2 313.6,150.9 316.7,150.3 318.5,155.1 319.8,154.2 320,160.5 316.9,161.5 	"/>
</g>
<g>
	<polygon class="st4" points="361.2,195.8 333.5,188.6 320.7,158.3 314.6,160.7 321.8,199.8 353.7,216.2 	"/>
</g>
<polygon class="st5" points="738.4,192.6 712.1,211.8 689.2,201.9 685.9,208.1 703.2,219.9 712.9,223.5 738.4,211.3 "/>
<path class="st6" d="M756.5,72.9l80.4,6.7c7.4,0.6,13,7.2,12.4,14.6l-4.3,51.8c-0.6,7.4-7.1,12.9-14.5,12.4l-12.9-1L801,176.8
	c-0.5,0.6-1.4,0.2-1.4-0.5l1.4-20.3l-51.2-4.4c-7.4-0.6-12.9-7.2-12.3-14.6l4.3-51.8C742.5,77.8,749,72.3,756.5,72.9z"/>
<rect x="787.8" y="60.5" transform="matrix(8.499385e-02 -0.9964 0.9964 8.499385e-02 629.7137 871.1578)" class="st7" width="2.7" height="64.5"/>
<rect x="792.3" y="75.2" transform="matrix(8.499325e-02 -0.9964 0.9964 8.499325e-02 612.9275 894.7426)" class="st7" width="2.7" height="76.9"/>
<rect x="790.5" y="95.6" transform="matrix(8.499325e-02 -0.9964 0.9964 8.499325e-02 591.0045 911.6783)" class="st7" width="2.7" height="76.9"/>
<g>
	<polygon class="st4" points="694.3,283.2 695.8,318.9 691.3,379.7 684.5,380.2 676.3,325 665,278.3 	"/>
	<polygon class="st4" points="684.8,383 692.3,386.1 695.7,382.2 691.8,378.8 684.5,379.4 	"/>
</g>
<g>
	<polygon class="st4" points="646.4,270.5 644.9,297.5 649.3,377.9 656.1,378.2 666.2,325.5 675.2,267.8 	"/>
	<polygon class="st4" points="655.9,381.1 648.4,384.4 644.9,380.5 648.8,377 656.1,377.4 	"/>
</g>
<g>
	<path class="st8" d="M685.8,191l-21.1-2.3c0,0-11.7,1.3-19.7,29.2c-4.4,15.5-5.8,40-6.1,58.6c0.5,2.7,3.4,14.3,15.6,12.3
		c21-3.4,32.2-6.8,41.4-5.1c7.8,1.7,7.1-9,6.3-17.3l-3.1-25.4L685.8,191z"/>
</g>
<g>
	<path class="st3" d="M681.7,164.7c-5.3-1.2-10.8-2.2-16.1-1.2c-1.2,0.2-2.4,0.6-3.1,1.6c-0.2,0.4-0.4,0.8-0.5,1.3
		c-1.3,5-3.1,12.4,0.2,17c0.6,0.9,1.5,1.6,2.4,2.1c1.2,0.8,2.6,1.3,3.9,1.5c-0.3,1.2-0.7,2.5-1.2,3.6c1.2,1.8,6.9,2.1,8,0.3
		c0.1-1.5,0.1-3,0.2-4.6c0.7-0.3,1.4-0.6,2-1c2.4-1.6,4-4,5-6.7c1-3,2.4-5.8,3.4-8.8c0.3-1.1,0.6-2.4,0-3.3
		c-0.6-1.1-1.9-1.4-3.1-1.7C682.4,164.8,682,164.7,681.7,164.7z"/>
	<path class="st9" d="M664,167.5c2.6-1.7,6.6-2.4,9.1-2.2c7.5,0.5,10.2,6,10.6,12.9c2.1-2.6,5.9-5.9,6.2-9.3
		c0.2-2.8-0.2-6.5-1.7-8.9c-1.4-2.2-5.1-3.5-7.3-4.7c-2.1-1.2-4.1-2.4-6.2-3.7c-0.4-0.3-0.9-0.5-1.4-0.6c-0.6-0.1-1.2,0-1.7,0.2
		c-4.9,1.3-9.8,2.5-14.7,3.8c-0.9,0.2-2,0.6-2.4,1.5c-0.2,0.6-0.1,1.2,0,1.7c0.6,2.5,1.6,5.1,1.9,7.7c0.3,1.5,1.2,9.2,3.8,8.3
		c0.8-1.3,0.9-2.8,1.5-4.2C662.1,169.1,662.9,168.2,664,167.5z"/>
</g>
<polygon class="st10" points="664.6,188.7 656.8,191.1 628.3,220.9 626.6,230.8 640.3,253.3 643.9,245 638.2,228.4 647.3,221.9 
	659.6,194.5 "/>
<polygon class="st11" points="480.2,373.5 480.7,377.7 472.7,383.1 467.8,379.4 471.6,374.6 479.6,369.2 "/>
<g>
	<polygon class="st11" points="480.4,372 474.2,317.3 481.7,256.1 480,243.1 446.8,241.8 445.6,263 451.1,317.4 472.1,374.8 	"/>
</g>
<polygon class="st6" points="443.6,181.3 426.9,185.9 407.6,220.2 416.7,228.7 429.6,213.4 "/>
<g>
	<polygon class="st11" points="422.4,248 422.3,303.1 433.4,374.2 441.4,374.1 445.8,308.4 456.1,242.7 	"/>
	<polygon class="st11" points="441.4,377.5 432.8,381.9 428.4,377.6 432.7,373.2 441.3,373.1 	"/>
</g>
<g>
	<path class="st6" d="M485.1,266.7c-0.1-2.4-0.2-4.4-0.2-5.1c-0.2-6.4-0.7-12.8-1.5-19.2c-0.7-5.7-1.6-19.9-2.6-25.5
		c-0.8-4.7-3.6-16.4-5.6-20.7c-5-10.8-3.5-11.8-25.7-15c-9.7-1.4-12,4.7-20,11.6c-0.8,0.7-0.7,4.8-0.9,5.9c-0.3,1.9-0.7,3.8-1.1,5.7
		c-0.3,1.5-0.7,3-1,4.5l0,0c0,0-6.7,30.4-11.1,36.8c-4.4,6.4-13.5,15.5,1.7,21c2.7,0.9,5.4,1.7,8.2,2.1c0,0,12.5-1.4,18.9-1.3
		c5.9,0,11.8,0.6,17.6,1.6c3.9,0.6,7.8,1.6,11.3,3.4c3.3,1.7,5.7,4.3,9.1,6.1c0.3,0.2,0.7,0.3,1,0.3
		C485.2,278.6,485.3,271.8,485.1,266.7z"/>
</g>
<path class="st12" d="M470.3,126.4c0,0-3.2-1.6-3.2-2c0-0.4,0.5-6.2,0.5-6.2l2.1-1.2l0.9-2.5c0,0-2.4-4.2-1.9-5.4
	c0.4-1.2,3.6,4.2,3.6,4.2l1.2,3.3l0.3,5.4L470.3,126.4z"/>
<polygon class="st12" points="436.4,208.5 442.9,203.5 440.9,200.7 435.7,203.1 435.4,201.3 430.3,206.2 432,209.5 "/>
<g>
	<polygon class="st6" points="435.6,210.2 430.3,203.4 412.4,214.3 416.8,228.7 	"/>
</g>
<g>
	<path class="st12" d="M449.4,184.2c1.1,0.6,3.8,0.8,6.5-0.3c0.6-0.2,0.9-0.8,0.9-1.3c0-1.7-0.2-3.3-0.4-5c2.1-0.7,4.5-1.8,4.8-4
		c0.1-0.7,0-1.4-0.1-2.1c-0.5-2.8-1-5.6-1.5-8.4c-0.2-1-0.3-2-0.9-2.8c-0.9-1.5-2.7-2.1-4.4-2.4c-4.4-0.8-9.1,0.2-12.5,3
		c-0.9,0.8-1.7,1.7-2.1,2.8c-0.6,1.7-0.2,3.6,0.3,5.3c0.4,1.6,0.8,3.2,1.3,4.9c0.5,1.9,1.2,4,3,4.7c1,0.4,2.1,0.3,2.9,0.8
		C448.8,180.4,448.6,182.6,449.4,184.2z"/>
	<path class="st11" d="M424.3,156.2c-0.4-0.7-0.9-1.4-1.4-2c-1.1-1.4-2.5-2.6-3.4-4.1c-0.9-1.5-1.2-3.6-0.1-5
		c0.7-0.9,1.8-1.4,2.9-1.7c3.6-1.1,7.5-1.1,11.2-0.2c3.5,0.9,6.6,2.4,10.1,1c3.3-1.2,5.7-0.7,9.1,0.5c3.7,1.3,8.7,1.6,12.1,3.5
		c1.4,0.8,2.5,2,3.4,3.4c3,4.7,3,11.1,0,15.8c-0.7,1.1-1.5,2-2.3,2.9c-1.8,1.9-3.9,4.3-6.3,5c-0.1-2.2,1.9-9,0.3-10.7
		c-2.6-2.8-8.6-1.8-11.8-1.1c-3.6,0.8-6.7,3.3-10.3,3.8c-2.5,0.4-5.8-0.9-7.9-2.2C427.1,163.5,425.9,158.8,424.3,156.2z"/>
</g>
<polygon class="st6" points="461.7,183.3 478.8,174.3 467.1,126.4 475.2,122 495.6,174.3 473.7,200.7 "/>
<g>
	<g>
		<polygon class="st13" points="336.2,376.6 335.8,380.2 342.7,384.6 346.7,381.4 343.5,377.4 336.6,373 		"/>
		<polygon class="st13" points="335.9,265.9 334.8,276.9 344.7,326.2 335.9,375.4 343,377.6 365.8,319 367.1,301.2 364,264.1 		"/>
	</g>
	<g>
		<polygon class="st13" points="389.4,269.6 389.6,316.2 380.4,376.2 373.7,376.2 369.8,320.7 360.9,265.3 		"/>
		<polygon class="st13" points="373.7,379 381,382.7 384.7,379.1 381,375.4 373.7,375.4 		"/>
	</g>
</g>
<g>
	<path class="st4" d="M395.1,262.8c-4.9-15.1-5.4-30.9-6.8-46.6c-0.4-4.6-0.9-9.4-2.8-13.6c-2.2-4.9-5.9-7.4-10.1-8.8
		c-5.4-1.8-11.8-1.7-17.5-2c-5.4-0.2-10.1,20-15.6,29.7c-3.3,6-6.8,11.3-9.1,17.8c-2.2,6.3-4.2,12.6-5.5,19.2
		c-1.9,9.8-6.8,16.7-2.1,20.1c0.4,0.1,0.8,0.3,1.2,0.4c7.6,2.7,15.5,4.8,23.6,5.8c7.1,0.9,14.4,1.1,21.5,0.4
		c9.8-1,19.3-2.4,27.9-7.5C398.3,272.7,396.7,267.8,395.1,262.8z"/>
</g>
<g>
	<path class="st3" d="M355.2,176.7c3.1-9.2,16.5-12.4,19.6-1.7c0.9,3.2,1.5,6.6,0.9,9.9c-0.6,3.3-2.6,6.4-5.7,7.8c0,0,0,0-0.1,0
		c0.1,0.9,0.2,1.7,0.4,2.6c0,0.2,0,0.4-0.1,0.5c-0.1,0.2-0.4,0.2-0.6,0.3c-1,0.2-2,0.3-3.1,0.5c-0.5,0.1-1,0.1-1.5,0
		c-1.1-0.3-1.5-1.6-1.6-2.7c0-0.3,0-0.5,0-0.8C357.5,191,353.2,182.8,355.2,176.7z"/>
	<g>
		<path class="st9" d="M371.6,161c2.5-0.4,4.6,2,6.8,3.3c1.9,1,4,1.3,6,2.2c2,0.9,3.9,2.7,3.9,4.9c2-1,4.1-2.1,6.4-1.7
			c2.2,0.4,4.3,3.1,3.4,5.3c-0.8,2-3.4,2.4-4.2,4.4c-1.3,3.1,2.3,7.8-0.2,9.8c-0.6,0.5-1.4,0.6-2,1.1c-0.7,0.6-1,1.7-1.3,2.6
			c-1.5,4.3-5.8,7.1-10.1,6.5c-2.7-1.2-4.8-3.8-5.7-6.8c-1.1-3.6,0.8-4.8,1.1-8.1c0.4-3.7-0.8-7.5-3.1-10.4
			c-1.5-1.8-3.6-3.4-5.9-3.7c-0.9-0.1-0.6,0.7-1.7,0c-0.4-0.3-1.1-1.5-1.2-2C366.3,166.5,368.4,161.5,371.6,161z"/>
		<path class="st9" d="M345,165.8c-1.3,0.4-2.6,0.3-3.9,0.8c-1.8,0.8-1.7,2.7-2.2,4.3c-0.6,1.8-1.4,4.2-2.6,5.7
			c-0.9,1-2.1,1.6-3.1,2.4c-1.1,0.8-2,1.9-2,3.4c0,1.3,0.9,2.5,1.1,3.9c0.2,2-0.2,3,0.4,5.1c0.3,1.1,0.7,2.2,1.5,2.9
			c1,0.9,2.5,0.9,3.8,0.7c1.3-0.2,2.6-0.6,3.9-0.1c2.8,0.9,2.3,3.8,3,6.1c1.1,3.6,5.3,5.7,8.5,4.4c2.7-1.1,4.3-4.2,4.1-7.3
			c-0.1-1.6-0.7-3-0.7-4.5c0-1.5,0.8-3.6-0.6-4.8c-0.3-0.3-0.8-0.4-1.1-0.8c-0.2-0.3-0.4-0.6-0.5-1c-0.3-1.2,0-2.6,0.7-3.5
			c0.5-0.7,1.3-1.2,1.6-2c0.4-0.9,0.1-2,0-3.1c-0.2-2.5,1.2-5,3.3-5.9c1.4-0.6,2.6-1,3.8-2c0.2-0.1,2.9-2.6,3-2
			c-0.1-0.9-0.7-1.7-1.2-2.4c-0.9-1.2-1.9-2.4-3.1-3.1c-4-2.3-4.2,3.1-7.5,2.4c-0.8-0.2-1.4-0.9-2.1-1.3c-1.3-0.8-3-0.5-4.3,0.1
			C347.7,164.5,346.4,165.4,345,165.8z"/>
	</g>
</g>
<polygon class="st6" points="749.4,286.7 779.1,276.7 771.6,327.9 774,375.9 774,375.9 774,375.9 774,375.9 768.6,375.9 
	768.6,375.9 768.6,375.9 756,333.3 750.4,291 750.4,291 "/>
<polygon class="st11" points="768.3,375.2 774.3,375.2 775.7,380.3 775.5,380.4 775.5,380.4 765.4,386 760.7,386.4 760.3,381 
	761.6,380.1 "/>
<polygon class="st6" points="726.4,287 732.9,378.2 738,378.8 745.6,328.3 757.1,281.3 "/>
<polygon class="st11" points="732.6,377.3 724.8,381.4 725.4,385.1 739.2,383.4 738.5,378.2 "/>
<path class="st5" d="M787.2,301.5c0.6-14.9-12.7-62.4-12.7-62.4l0,0c-1.4-4.5-2.5-9-3.1-13.5c-0.5-3.2-10.2-40-9.5-40.1
	c-6.7,0.5-19.6-1.1-24.5,3.7c-0.1,0.1-0.3,0.3-0.4,0.4c-3.9,4.4-5.9,13.3-7.7,18.8c-2.4,7.2-4.2,14.6-5.5,22.1
	c-1.1,6.5-1.8,13.2-2.2,19.8c-0.4,5.7-0.1,11.4-0.3,16.9c-0.2,6.2-2.1,12.9-3.5,18.9c-1.4,6.1-3.2,12.1-5.6,17.8
	c6.6,2.9,14,3.7,21.3,3.8c7.3,0,14.5-0.7,21.8-0.6c6.1,0.1,12.3,0.8,18.4-0.5C778.3,305.6,782.7,303.5,787.2,301.5L787.2,301.5z"/>
<path class="st11" d="M738.9,169.8c-3,1.5-6.2,5.4-6,9c0.1,1.7,1.1,3.1,1.1,5c0.1,3.7,5.6,7.5,2.2,11.1c-1.8,1.8-4.5,2.2-7,2.4
	c-0.3,0-0.6,0.1-0.9-0.1c-0.5-0.2-0.7-0.7-0.7-1.3c0-0.5,0.2-1,0.4-1.5c1.6-5-0.8-10.9-1.1-16.1c-0.3-5.1,0.9-10.7,5.1-14
	c2.8,0.9,4.9,2,6.3,4.6L738.9,169.8z"/>
<path class="st12" d="M740.8,191.7c-3.5-0.4-6.4-3-8-6.1c-1.6-3.1-2.1-6.7-2.1-10.2c-0.1-11.7,14.4-12.4,20.2-4.1
	C755.9,178.5,750.9,193,740.8,191.7z"/>
<path class="st11" d="M758.3,193.1c-1.8-0.5-3.6-1.1-4.9-2.6c-2.2-2.4-2.9-7-4-10.1c-1.1-3.2-2.4-6.7-5.3-8.4
	c-1.9-1.1-3.8-1-5.9-0.7c-1.4,0.3-1.4,0.8-2.7,0.3c-1-0.4-2.2-2-2.6-3c-0.7-1.7-0.4-3.6,0.5-5.2c1.3-2.4,3.2-3.8,5.9-4.4
	c9.2-2,17.3,2.1,21.7,10.7c2.1,4.1,2.1,9.1,4.3,13.1c1.3,2.4,3.3,3.8,4.5,6.5c3.2,6.8,8.9,15.2,10.1,22.7c0,0.3,0.1,0.6-0.1,0.8
	c-0.3,0.5-1.1,0.1-1.5-0.2c-2.6-2.1-5.2-4.1-7.8-6.2c-1-0.8-2.1-1.6-2.8-2.7c-1.9-2.6-1.9-6.5-4.5-8.5
	C761.6,194,760,193.6,758.3,193.1z"/>
<g>
	<path class="st5" d="M801.6,179c1.7,0.3,6.3-0.9,7.3-2.5c2.4-3.7-3.3-2.6-5.4-2.6c0.2-0.7,0.5-1.4,0.6-2.1c0.1-0.7-6.1,1.1-6.6,1.7
		c-1.4,1.5-0.8,2.7-0.6,4.7C798.4,178.4,800,178.7,801.6,179z"/>
</g>
<polygon class="st5" points="753.3,216.3 786.9,210.7 802.3,179.3 796.2,174.3 779.8,196 762.7,195.3 746.9,195.9 "/>
<polygon class="st12" points="153.9,284.7 124.5,273.9 130.6,325.4 127.1,369.7 127,370 127.1,370 126.8,373 132,373.9 132,373.9 
	132,373.9 146,331.2 152.8,289 152.8,289 "/>
<polygon class="st11" points="132.5,372.7 126.5,372.6 125,377.6 125.2,377.7 125.1,377.7 135,383.6 139.8,384.1 140.4,378.7 
	139.1,377.7 "/>
<polygon class="st12" points="173.9,285.6 164.8,376.3 159.7,377.6 153.4,326.4 143.3,279 "/>
<polygon class="st11" points="165.1,375.7 172.8,380.1 172.1,383.7 158.3,381.6 159.1,376.4 "/>

<polygon class="st8" points="178.9,230.4 180.6,232.5 186.7,224 162.3,196.8 153.1,194.1 157.5,206 "/>
<polygon class="st12" points="158.5,223.4 153.1,219.3 154.8,216.9 159.1,218.9 159.3,217.4 163.5,221.5 162.1,224.2 "/>
<polygon class="st8" points="179.5,222.4 179.2,222.9 162.5,219.7 160.1,225.1 180.6,232.5 "/>
<g>
	<path class="st11" d="M155.8,180.2c1.1,3.3-0.5,6.9-1.9,10c-1.3,2.7-1.7,4.5,1.5,5.2c1.8,0.4,5,1.2,6.6-0.2c1.2-1,0.5-4.3-0.1-5.5
		c-0.4-1-1.6-1.5-2-2.5c-0.2-0.4-0.2-0.9-0.2-1.3c0-1.8,0.2-3.6,0.7-5.3c0.3-1.2,0.8-2.3,0.9-3.6c0.2-1.8-1.1-3.8-1.8-5.5
		c-1.2-3-5.5-7.1-9.1-4.7c-0.8,0.5-1.3,1.5-1.7,2.3c-0.2,0.5-0.5,1.1-0.5,1.7c0,2.3,2.1,2.7,3.6,3.8
		C153.7,176,155.1,178.1,155.8,180.2z"/>
	<path class="st12" d="M149,193.3c3.1-0.7,5.5-3.3,6.7-6.3c1.2-3,1.2-6.2,0.9-9.4c-1.1-10.5-14.2-9.9-18.6-1.8
		C134.2,182.8,140,195.4,149,193.3z"/>
</g>
<path class="st12" d="M149,192.1c-0.1,1.2-0.1,2.4-0.2,3.6c0,0.2,0,0.4-0.1,0.5c-0.1,0.1-0.4,0.1-0.6,0.1c-1,0-2-0.1-2.9-0.1
	c-0.5,0-1,0-1.4-0.3c-0.9-0.5-1.1-1.8-1-2.8c0.1-1.1,0.5-2.1,0.3-3.1c2,1,3.9-1.3,6-0.3L149,192.1z"/>
<path class="st11" d="M144.8,159.3c-3.4,1.2-5.6,4.6-9,6c-1.9,0.8-4.2,0.9-5.8,2.3c-3.5,3.1-0.7,9.5-3.6,13.2
	c-0.6,0.8-1.4,1.3-2,2.1c-1.3,1.6-1.5,3.9-1.6,6c0,0.5,0,1,0.1,1.5c0.5,4.8,7.5,4.5,10.2,4.2c3.1-0.3,2-2,2-2l-0.1-0.1
	c-0.3-2,0.5-4,2.1-5.3c0.6-0.5,1.2-0.8,1.6-1.4c0.9-1.4,0-3.2,0.2-4.9c0.5-6.6,11.7-5.2,14.8-9.9C157.6,165,151.3,157.1,144.8,159.3
	z"/>
<path class="st5" d="M181.2,67.8l-95.8,7.8c-0.4,0-0.6,0.4-0.6,0.8l6,71.4c0,0.4,0.4,0.7,0.7,0.7l21.7-1.8l16.6,19.3
	c0.5,0.6,1.4,0.2,1.4-0.5l-1.4-20.1l37.5-3c11.5-0.9,20-11.6,18.9-23.9l-4.2-49.8C181.9,68,181.6,67.7,181.2,67.8z"/>
<polygon class="st7" points="170.5,83.1 110.9,87.9 110.6,85.5 170.3,80.6 "/>
<polygon class="st7" points="172.1,101.7 100.9,107.5 100.7,105 171.9,99.3 "/>
<polygon class="st7" points="173.7,120.3 102.5,126.1 102.3,123.6 173.5,117.9 "/>

<polygon class="st12" points="108.6,147.6 110.6,140.6 113.7,141.3 113.4,146.4 115,146.1 112.5,151.9 109.2,151.6 "/>
<polygon class="st8" points="135.5,201.1 113.2,183.1 114,150.2 107.5,149.9 98,188.5 120.3,216.7 "/>
<polygon class="st10" points="681.3,192.8 695.8,177.1 692.4,134.6 698.8,131.8 707.4,174.9 704.8,185.6 688.5,208.1 "/>
<polygon class="st3" points="698.8,131.8 698.8,122 694.3,119.4 692.2,123.4 692.2,127.3 689.8,128.3 692.4,134.6 "/>

</svg>
